<?xml version="1.0" standalone="no"?>
<!DOCTYPE svg PUBLIC "-//W3C//DTD SVG 20010904//EN"
 "http://www.w3.org/TR/2001/REC-SVG-20010904/DTD/svg10.dtd">
<svg version="1.0" xmlns="http://www.w3.org/2000/svg"
 width="1280.000000pt" height="1280.000000pt" viewBox="0 0 1280.000000 1280.000000"
 preserveAspectRatio="xMidYMid meet">
<metadata>
Created by potrace 1.15, written by Peter Selinger 2001-2017
</metadata>
<g transform="translate(0.000000,1280.000000) scale(0.100000,-0.100000)"
fill="#000000" stroke="none">
<path d="M3990 10368 c-66 -14 -126 -44 -157 -78 -15 -17 -42 -40 -60 -51 -29
-18 -73 -89 -73 -118 0 -5 -21 -24 -47 -43 -63 -45 -107 -124 -99 -176 10 -69
13 -77 36 -122 26 -50 40 -64 87 -85 17 -8 34 -19 38 -25 9 -14 145 -52 171
-47 13 2 25 1 26 -3 9 -20 211 -179 236 -184 29 -7 35 -26 17 -56 -5 -9 -4
-15 4 -18 20 -7 -8 -32 -36 -32 -14 0 -40 -16 -66 -41 -23 -22 -52 -45 -64
-49 -29 -12 -123 -80 -123 -90 0 -4 -23 -17 -50 -29 -28 -12 -69 -40 -92 -61
-24 -24 -50 -40 -65 -40 -14 0 -40 -16 -66 -40 -22 -22 -55 -44 -72 -49 -29
-8 -85 -40 -135 -80 -14 -10 -44 -24 -67 -30 -22 -6 -57 -27 -77 -46 -21 -19
-40 -35 -44 -36 -67 -6 -78 -10 -104 -38 -16 -17 -32 -31 -36 -32 -4 -1 -21
-2 -39 -4 -17 -1 -45 -12 -61 -24 -17 -11 -35 -21 -40 -21 -6 0 -17 -6 -24
-14 -13 -12 -147 -52 -152 -44 -41 69 -166 199 -221 232 -17 10 -40 34 -52 54
-47 82 -99 128 -185 165 -46 19 -104 38 -130 41 -93 14 -283 -65 -351 -144
-39 -45 -183 -303 -193 -346 -4 -16 -17 -49 -30 -74 -13 -25 -24 -56 -24 -69
0 -13 -20 -63 -45 -112 -25 -49 -47 -97 -49 -106 -1 -10 -9 -31 -15 -48 -7
-16 -14 -34 -16 -40 -22 -85 -45 -103 -245 -194 -25 -11 -62 -31 -82 -43 -166
-103 -178 -109 -197 -98 -32 16 -60 12 -87 -15 -17 -17 -36 -25 -59 -25 -36 0
-55 -20 -50 -52 2 -9 -8 -24 -21 -33 -13 -8 -24 -24 -24 -35 0 -11 -6 -20 -13
-20 -23 0 -44 -34 -41 -65 2 -16 5 -59 8 -95 2 -36 12 -87 22 -115 47 -138 55
-190 35 -251 -10 -33 -16 -80 -15 -126 2 -66 5 -75 31 -99 36 -31 40 -41 53
-127 26 -168 97 -421 163 -582 28 -69 118 -238 165 -310 46 -70 177 -207 216
-226 68 -32 116 -66 116 -82 1 -25 7 -110 19 -252 14 -169 13 -207 -9 -335
-10 -60 -24 -155 -30 -210 -6 -55 -15 -107 -19 -115 -8 -14 -15 -107 -14 -180
0 -45 335 -768 398 -860 47 -68 72 -153 62 -214 -3 -19 27 -175 74 -386 44
-195 83 -371 87 -390 7 -31 12 -35 42 -38 87 -6 100 -11 99 -40 -1 -40 -12
-62 -38 -75 -21 -10 -120 -142 -119 -157 2 -20 -7 -31 -43 -54 -22 -15 -67
-52 -100 -82 -32 -30 -63 -54 -68 -54 -14 0 -21 -41 -10 -61 8 -16 46 -31 114
-45 11 -3 83 -5 160 -5 122 -1 149 2 205 21 71 25 233 129 244 155 3 9 6 41 6
70 0 50 2 54 26 57 19 2 33 17 57 63 18 32 35 64 40 70 26 35 57 87 57 96 0
19 52 29 148 29 53 0 147 7 207 15 61 8 127 15 147 15 21 0 55 7 75 15 21 8
69 22 106 29 38 8 71 17 74 20 3 2 16 116 29 253 30 299 24 416 -36 707 -11
54 -22 158 -25 243 -6 142 -20 257 -35 278 -9 12 -18 61 -26 130 -13 116 -49
267 -74 313 -5 9 -28 69 -51 132 -22 63 -44 120 -48 125 -18 23 -41 112 -41
160 0 28 -3 55 -8 59 -4 4 -12 35 -18 69 -11 57 -10 64 10 90 19 26 21 44 24
185 2 86 -2 193 -8 237 -5 44 -20 167 -31 274 l-21 195 152 150 c113 113 159
166 182 211 39 77 71 227 58 273 -7 27 -5 42 11 70 28 53 24 96 -17 181 -20
42 -40 85 -45 96 -8 20 -36 122 -65 240 -20 78 -73 241 -90 274 -8 14 -14 29
-14 34 0 4 -14 26 -30 49 -17 23 -28 48 -26 55 3 6 41 61 85 121 l79 109 -259
247 c-142 136 -258 250 -257 254 1 4 -4 18 -11 30 -7 13 -11 25 -9 26 17 11
142 66 173 76 22 7 59 26 82 43 23 16 53 31 67 32 32 4 86 36 86 51 0 11 36
28 54 25 16 -3 71 22 80 37 4 8 36 28 70 44 98 47 119 59 154 90 29 25 50 33
74 29 4 0 28 19 53 44 27 27 54 45 68 45 12 0 38 14 57 31 19 18 70 53 115 80
44 26 96 64 115 83 19 20 44 36 55 36 27 0 65 27 74 53 7 19 9 19 27 -11 10
-18 23 -32 29 -32 5 0 25 -14 44 -31 l33 -31 -40 -41 c-40 -42 -72 -95 -72
-120 0 -7 -6 -19 -12 -25 -7 -7 -13 -16 -14 -20 0 -4 -4 -15 -9 -26 -6 -14 -2
-23 16 -37 13 -10 29 -19 35 -19 6 0 23 -16 39 -35 19 -25 33 -34 45 -30 10 3
21 1 25 -5 5 -8 11 -8 21 1 7 6 42 12 77 12 75 2 117 -19 117 -58 0 -18 7 -26
25 -31 20 -5 25 -14 30 -52 4 -26 10 -69 15 -97 8 -52 10 -73 9 -143 0 -23 7
-52 16 -64 8 -13 15 -35 15 -50 0 -15 6 -31 13 -35 11 -7 28 -39 81 -152 20
-43 90 -101 179 -147 90 -47 157 -102 157 -131 0 -18 64 -140 119 -223 19 -30
43 -71 52 -90 14 -30 81 -126 137 -196 36 -45 191 -202 275 -279 l89 -80 -5
-43 c-3 -24 -11 -48 -20 -55 -8 -7 -17 -30 -20 -52 -5 -32 -1 -48 18 -80 14
-22 25 -47 25 -56 0 -9 6 -22 14 -29 8 -6 13 -17 10 -24 -4 -12 22 -51 63 -94
18 -19 16 -30 -7 -37 -21 -7 -36 -45 -26 -70 3 -10 -11 -27 -41 -50 -54 -41
-82 -84 -89 -131 -2 -18 -5 -37 -6 -41 -3 -13 14 -57 29 -74 8 -10 23 -15 34
-12 11 3 28 -2 38 -11 10 -9 25 -14 33 -11 8 3 20 -1 27 -9 10 -12 17 -13 31
-4 14 9 28 9 58 -1 27 -9 61 -11 101 -7 41 5 61 4 61 -4 0 -8 6 -8 20 0 11 6
20 8 20 4 0 -3 6 -1 13 5 8 6 16 8 20 5 11 -11 44 7 57 31 7 13 17 22 21 19
14 -8 52 33 46 49 -3 8 -1 19 5 25 6 6 8 23 3 39 -3 15 -7 30 -7 33 0 29 -115
158 -190 213 -36 27 -37 29 -33 79 2 28 9 55 16 59 14 8 75 1 101 -12 23 -12
109 11 116 31 17 45 28 44 187 -18 l49 -20 4 -63 c2 -35 11 -80 21 -99 15 -30
25 -36 62 -42 91 -14 159 17 159 73 0 43 42 50 129 23 45 -15 54 -23 82 -73
61 -110 162 -251 205 -286 71 -59 70 -57 77 -157 9 -130 8 -125 109 -400 5
-15 7 -54 4 -85 -3 -32 -9 -100 -12 -152 -7 -92 -7 -93 14 -86 13 4 22 2 22
-4 0 -6 7 -8 16 -4 13 5 15 2 10 -15 -11 -33 3 -46 23 -21 15 19 19 20 32 6
13 -13 67 -215 84 -317 17 -97 27 -145 35 -155 4 -5 10 -23 14 -40 3 -16 8
-39 11 -50 8 -35 25 -118 36 -180 12 -67 15 -291 5 -345 -5 -24 -2 -51 9 -80
9 -25 18 -60 20 -77 7 -64 18 -99 61 -186 37 -76 42 -96 40 -141 -2 -30 -8
-61 -13 -71 -7 -12 -5 -38 7 -84 21 -79 27 -419 9 -486 -6 -22 -12 -80 -13
-130 -2 -49 -6 -101 -9 -115 -37 -139 -111 -316 -150 -359 -47 -50 -89 -68
-169 -72 -87 -5 -115 -22 -150 -94 -10 -22 -27 -55 -38 -73 -28 -52 -8 -85 59
-96 7 -1 21 -12 30 -24 25 -33 103 -50 281 -64 203 -15 274 -15 368 0 86 14
111 35 112 94 0 49 -27 126 -56 161 -29 34 -29 41 -5 75 30 44 56 142 54 207
-1 33 -4 173 -7 310 -3 138 -6 268 -7 290 -2 64 19 426 25 432 3 3 20 -7 38
-23 31 -27 105 -65 187 -95 19 -7 59 -34 89 -61 30 -26 61 -48 68 -48 8 0 28
-25 45 -56 18 -31 42 -61 55 -66 13 -6 33 -26 44 -45 14 -24 38 -42 84 -62 44
-20 75 -43 102 -76 22 -26 56 -64 76 -86 21 -21 40 -51 44 -66 13 -61 49 -114
97 -145 69 -44 93 -86 107 -188 6 -47 11 -111 10 -142 -1 -68 16 -106 72 -160
50 -48 78 -55 143 -34 51 16 55 15 101 -4 71 -31 96 -21 179 68 94 101 115
134 122 190 7 61 -29 178 -95 313 -58 116 -94 146 -190 155 -57 6 -68 11 -105
49 -48 47 -139 115 -156 115 -6 0 -11 4 -11 9 0 5 -9 13 -20 16 -70 22 -432
357 -532 492 -58 79 -83 160 -93 298 -9 120 -12 143 -27 173 -11 21 -12 34 -5
41 6 6 12 52 13 103 2 51 10 129 19 173 8 44 24 141 36 215 11 74 24 144 29
155 5 11 14 47 20 80 7 33 18 74 25 90 7 17 21 55 30 85 9 30 21 64 26 75 5
11 18 56 28 100 38 152 49 186 78 218 16 18 35 49 42 68 40 107 60 126 61 57
0 -15 4 -29 9 -32 5 -4 8 -14 6 -24 -1 -9 2 -22 7 -28 16 -21 21 -107 7 -139
-7 -16 -13 -32 -13 -35 -1 -3 -4 -9 -7 -15 -4 -5 -12 -35 -20 -65 -7 -30 -17
-61 -22 -68 -6 -7 -7 -15 -4 -19 4 -3 3 -11 -2 -17 -12 -16 -35 -106 -28 -112
12 -12 25 7 37 53 14 53 36 87 24 38 -4 -16 -13 -49 -21 -73 -8 -23 -13 -48
-11 -55 1 -6 -1 -22 -6 -34 -4 -13 -2 -31 4 -43 12 -23 26 -14 47 30 10 23 11
21 8 -20 -3 -54 4 -78 16 -58 6 9 9 4 9 -15 0 -44 15 -23 29 40 7 32 17 66 22
75 5 10 9 25 9 33 0 8 4 15 9 15 6 0 6 -13 1 -33 -5 -17 -11 -63 -15 -101 -6
-55 -4 -67 7 -64 7 3 17 32 23 71 10 64 25 101 25 59 0 -29 20 -39 27 -13 6
24 23 28 23 6 0 -18 16 -20 22 -2 3 6 6 52 7 102 1 49 7 97 12 106 5 10 9 36
9 58 0 42 21 58 34 25 14 -37 26 4 26 92 0 97 -1 94 42 98 16 1 13 -176 -3
-206 -9 -17 -8 -24 3 -32 8 -6 13 -18 10 -26 -5 -13 -3 -13 13 0 17 14 18 13
13 -7 -4 -13 -2 -23 2 -23 5 0 10 -10 12 -22 2 -12 8 -23 14 -25 15 -5 51 28
57 52 3 14 5 11 6 -10 2 -40 14 -57 34 -49 14 5 17 0 17 -25 0 -23 6 -34 23
-41 12 -5 18 -9 13 -9 -5 -1 -3 -7 3 -15 9 -11 17 -11 36 -2 28 13 30 21 10
56 -8 14 -14 39 -15 56 0 16 -4 34 -10 40 -5 5 -17 70 -26 144 -9 74 -20 140
-24 145 -5 6 -14 59 -20 118 -6 59 -13 115 -16 125 -5 14 -3 13 11 -3 9 -11
18 -30 22 -42 5 -22 33 -33 33 -13 0 15 -24 64 -35 72 -5 4 -6 10 -1 15 7 7
28 -19 32 -39 4 -21 6 -21 14 -3 7 16 9 13 9 -17 1 -39 17 -60 27 -34 3 9 12
16 20 16 10 0 14 14 14 51 0 50 0 50 22 34 21 -14 24 -14 39 6 16 21 16 21 23
-20 5 -32 11 -41 26 -41 16 0 20 7 20 32 0 17 3 28 8 24 4 -4 7 -45 7 -91 0
-58 5 -88 15 -100 8 -10 14 -21 13 -24 -2 -3 4 -26 13 -51 9 -25 19 -52 21
-60 9 -25 12 -41 28 -150 8 -57 19 -108 24 -113 6 -6 5 -17 -2 -28 -14 -22
-11 -25 31 -34 28 -6 32 -4 32 13 0 11 7 22 14 25 12 5 16 -5 18 -46 4 -64 21
-68 29 -7 5 41 6 43 13 18 4 -15 14 -32 22 -39 12 -10 14 -2 15 47 1 33 1 70
0 84 -2 20 0 22 8 10 6 -8 11 -39 11 -69 0 -42 3 -52 14 -48 10 4 16 -2 18
-15 4 -29 28 -36 28 -9 0 12 -6 37 -14 55 -8 20 -10 39 -5 47 14 23 11 179 -3
179 -7 0 -26 24 -42 53 -16 28 -35 59 -43 68 -7 9 -20 42 -29 75 -8 32 -26 77
-41 98 -29 44 -43 83 -50 139 -3 26 -1 37 6 32 6 -3 11 -10 11 -14 0 -5 16
-26 35 -47 l35 -38 0 33 c0 18 4 30 9 26 6 -3 14 3 20 12 9 17 11 17 25 -2 14
-19 15 -19 22 -2 4 12 -1 26 -15 41 -15 15 -21 34 -20 62 1 21 3 32 5 24 3 -8
16 -20 30 -27 20 -9 26 -9 30 2 5 11 10 10 27 -5 22 -21 42 -26 51 -11 4 5 18
7 34 5 91 -13 113 -11 140 15 15 14 27 36 28 50 0 15 1 44 2 66 l2 40 53 -95
c50 -92 53 -95 95 -103 65 -13 72 -7 73 60 0 50 2 55 12 38 7 -11 29 -37 49
-58 21 -22 36 -43 33 -47 -2 -4 0 -22 6 -41 15 -52 29 -182 31 -299 1 -115 6
-133 55 -201 18 -26 33 -54 33 -62 0 -8 11 -39 25 -69 14 -29 25 -69 25 -89 0
-20 3 -39 7 -43 9 -8 12 -23 24 -121 13 -107 27 -252 32 -350 3 -44 10 -121
16 -172 14 -114 1 -294 -24 -333 -6 -8 -11 -123 -12 -265 -2 -242 -7 -338 -21
-359 -3 -6 -7 -15 -9 -21 -10 -45 -37 -133 -44 -147 -8 -16 -46 -148 -53 -188
-2 -8 -8 -28 -15 -43 -6 -16 -11 -31 -11 -33 0 -8 -48 -113 -77 -169 -32 -62
-90 -152 -103 -160 -12 -7 -41 -71 -46 -100 -11 -65 -28 -114 -49 -145 -42
-63 -115 -131 -161 -151 -27 -11 -44 -24 -41 -32 2 -6 -2 -26 -10 -44 -35 -86
-5 -123 117 -140 19 -3 40 -9 45 -13 28 -21 138 -35 260 -34 117 1 190 25 218
73 23 40 21 62 -12 139 -39 89 -45 130 -31 194 7 29 14 71 17 93 31 268 189
759 339 1055 24 47 50 101 58 120 8 19 21 46 29 60 28 48 75 165 93 228 17 60
17 65 0 119 -20 63 -20 63 -35 183 -14 106 -15 638 -2 625 5 -6 36 -59 67
-120 32 -60 77 -146 101 -190 56 -102 88 -171 98 -205 0 -3 4 -14 8 -25 4 -12
14 -66 22 -120 23 -151 24 -156 35 -215 27 -143 31 -203 31 -445 0 -267 -22
-577 -43 -602 -6 -7 -7 -13 -4 -13 4 0 2 -9 -4 -19 -5 -11 -17 -46 -26 -78 -8
-32 -17 -65 -19 -73 -3 -8 -9 -35 -15 -59 -6 -24 -20 -57 -31 -72 -23 -32
-108 -75 -168 -85 -62 -10 -111 -59 -111 -110 0 -22 4 -44 8 -51 10 -15 57
-33 87 -33 14 0 42 -9 63 -20 35 -18 58 -20 234 -20 196 -1 232 4 257 34 24
28 16 98 -18 166 l-31 63 25 73 c21 61 25 90 25 191 0 65 5 156 11 203 6 47
12 123 14 170 3 47 9 121 15 165 5 44 15 123 21 175 15 131 15 130 39 265 12
66 23 136 25 155 2 19 8 73 15 120 7 47 16 121 20 165 5 44 11 90 14 102 3 13
-2 35 -10 50 -7 16 -14 33 -14 39 0 6 -12 21 -26 35 -40 38 -172 280 -216 396
-11 32 -33 78 -47 103 -15 25 -44 83 -65 130 -35 77 -39 96 -46 200 -4 63 -5
117 -3 119 1 2 3 -1 3 -8 0 -6 10 -25 22 -41 15 -21 30 -30 50 -30 17 0 27 -4
23 -10 -3 -6 4 -10 18 -10 31 0 107 72 107 101 0 34 -30 150 -53 204 -17 38
-22 70 -22 136 0 58 -4 91 -14 102 -9 12 -10 21 -3 30 5 6 19 29 30 49 25 44
24 131 -1 192 -18 42 -13 84 11 102 12 9 18 51 26 178 9 134 13 165 24 155 10
-11 12 -10 12 1 1 11 3 11 11 -2 9 -17 11 -17 31 1 16 16 19 27 14 58 -3 21
-9 61 -12 88 -3 28 -14 68 -24 91 -11 27 -18 68 -18 120 -1 43 -3 86 -5 94 -2
8 -7 31 -11 50 -18 75 -55 131 -243 366 -69 86 -99 126 -184 247 -22 32 -68
89 -101 125 -54 59 -82 97 -125 167 -14 24 -157 311 -202 407 -17 37 -31 74
-31 83 0 18 -135 281 -159 310 -18 21 -64 113 -76 153 -4 13 -20 50 -36 82
-16 33 -29 61 -29 63 0 3 -18 36 -40 73 -22 38 -40 75 -40 82 0 7 -8 30 -19
52 -10 21 -15 44 -11 51 12 19 0 39 -22 39 -28 0 -88 66 -88 95 0 13 -7 31
-16 40 -9 8 -13 22 -10 30 3 8 1 15 -4 15 -5 0 -16 23 -25 52 -26 89 -56 117
-137 132 -21 4 -38 11 -38 16 0 6 -10 10 -22 10 -16 0 -24 7 -25 23 -2 12 -5
47 -8 77 -17 160 -17 191 -1 239 25 77 22 88 -32 119 -28 16 -110 15 -142 -1
-26 -13 -36 -60 -18 -84 13 -16 1 -190 -15 -233 -3 -8 -8 -36 -12 -62 -3 -25
-13 -52 -21 -59 -8 -7 -12 -18 -10 -26 8 -19 -41 -63 -77 -70 -15 -3 -34 -15
-42 -25 -11 -17 -21 -19 -57 -14 -52 7 -45 7 -143 -3 -44 -5 -105 -17 -135
-26 -66 -20 -275 -54 -345 -55 -27 -1 -82 -7 -122 -14 -58 -10 -76 -10 -95 0
-37 21 -174 84 -182 84 -4 0 -32 11 -62 25 -30 14 -63 25 -73 25 -17 0 -34 12
-119 85 -13 11 -36 30 -50 42 -25 21 -69 37 -88 31 -5 -1 -18 1 -30 5 -19 7
-31 25 -55 82 -18 43 -39 159 -39 215 0 54 -3 61 -27 77 -35 23 -121 23 -157
0 -14 -10 -33 -28 -42 -42 -15 -24 -15 -28 11 -76 33 -64 63 -174 71 -267 7
-71 6 -72 -25 -101 -17 -16 -31 -33 -31 -38 -1 -15 -48 -66 -56 -60 -5 3 -24
-2 -43 -12 -34 -16 -80 -80 -81 -112 0 -28 -80 -131 -185 -240 -106 -110 -165
-185 -200 -253 -21 -42 -87 -111 -198 -209 -37 -33 -79 -79 -94 -103 -62 -99
-85 -124 -170 -183 -48 -33 -97 -66 -108 -73 -31 -20 -125 -120 -125 -134 0
-6 -7 -17 -15 -24 -9 -7 -15 -29 -15 -52 l0 -40 -37 4 c-25 3 -51 -1 -74 -13
-34 -17 -139 -37 -139 -27 0 3 9 25 19 49 11 24 21 60 23 79 3 31 0 35 -20 34
-14 0 -21 5 -20 14 5 28 -19 23 -32 -8 -13 -31 -26 -38 -32 -18 -7 21 -28 -2
-28 -31 0 -43 -20 -54 -58 -31 -26 16 -37 17 -62 8 -30 -10 -30 -11 -15 -34
14 -22 14 -24 -5 -34 -31 -17 -84 5 -109 43 -12 18 -30 45 -40 61 -11 16 -18
34 -15 38 3 5 -2 25 -11 44 -9 20 -14 42 -11 50 3 9 -9 23 -33 39 -45 28 -52
41 -39 75 8 20 5 28 -14 45 -28 24 -52 87 -43 114 3 10 0 25 -7 33 -18 20 -36
48 -53 84 -7 17 -31 46 -52 65 -43 39 -50 83 -20 117 21 23 22 38 2 46 -23 8
-18 24 13 40 25 13 29 21 30 59 2 38 -4 52 -36 94 -21 26 -55 63 -76 80 -36
32 -36 33 -21 63 9 16 19 30 24 30 16 0 19 37 7 81 -15 60 -18 64 -92 105 -71
40 -140 116 -128 143 4 9 9 35 10 58 2 24 10 59 19 79 8 20 15 47 15 60 0 12
5 26 11 30 6 3 9 14 6 24 -3 11 1 21 9 24 24 9 15 28 -37 78 -55 54 -70 55
-123 11 l-29 -24 -36 35 c-73 72 -329 216 -381 216 -207 -1 -277 -7 -322 -28
-64 -30 -94 -29 -102 3 -14 57 -118 85 -162 44 l-23 -22 -53 23 c-46 20 -72
24 -193 26 -77 1 -160 -2 -185 -8z m145 -1078 c-3 -5 -11 -10 -16 -10 -6 0 -7
5 -4 10 3 6 11 10 16 10 6 0 7 -4 4 -10z m-135 -94 c0 -2 -7 -7 -16 -10 -8 -3
-12 -2 -9 4 6 10 25 14 25 6z m-205 -136 c-3 -5 -12 -10 -18 -10 -7 0 -6 4 3
10 19 12 23 12 15 0z m-135 -90 c-24 -15 -37 -11 -16 5 11 8 22 12 25 9 3 -3
-1 -9 -9 -14z m-205 -120 c-3 -5 -12 -10 -18 -10 -7 0 -6 4 3 10 19 12 23 12
15 0z m-149 -85 c-11 -8 -22 -12 -25 -9 -6 6 19 24 34 24 6 -1 1 -7 -9 -15z
m-141 -74 c-3 -6 -14 -11 -23 -11 -15 1 -15 2 2 15 21 16 32 13 21 -4z m-145
-71 c-20 -13 -33 -13 -25 0 3 6 14 10 23 10 15 0 15 -2 2 -10z m-1705 -764
c-19 -31 -48 -62 -63 -70 -61 -33 -109 -89 -123 -144 -14 -56 -70 -134 -86
-119 -13 13 -16 182 -4 205 12 23 297 194 309 186 2 -1 -13 -27 -33 -58z
m-382 -1144 c87 -72 162 -108 287 -137 100 -23 134 -20 214 22 39 20 83 43 99
50 32 17 47 42 47 77 0 22 24 46 45 46 7 0 0 -54 -9 -69 -4 -5 -11 -68 -16
-139 -6 -71 -19 -167 -31 -212 -11 -46 -25 -119 -30 -164 -13 -102 -13 -105
-32 -201 -8 -44 -18 -93 -21 -110 -4 -16 -8 -39 -10 -50 -3 -11 -9 -54 -16
-95 -19 -131 -16 -125 -48 -104 -15 10 -40 25 -57 33 -42 21 -185 166 -227
231 -80 123 -159 291 -193 412 -8 26 -21 62 -29 80 -26 57 -86 327 -86 391 0
17 1 17 31 0 16 -10 54 -37 82 -61z m9114 -480 c7 -4 10 -17 6 -30 -3 -12 -9
-20 -13 -17 -5 3 -6 -4 -3 -15 3 -11 0 -27 -7 -35 -8 -9 -10 -29 -5 -57 l6
-43 -30 62 c-37 76 -40 114 -8 129 28 14 39 16 54 6z m38 -61 c-19 -38 -28
-41 -14 -5 13 35 20 46 26 41 2 -3 -3 -19 -12 -36z m-810 -110 c3 -5 1 -12 -5
-16 -5 -3 -10 1 -10 9 0 18 6 21 15 7z m432 -100 c0 -44 -3 -85 -8 -93 -5 -8
-9 22 -9 73 0 72 4 99 15 99 1 0 2 -36 2 -79z m290 32 c-3 -10 -5 -4 -5 12 0
17 2 24 5 18 2 -7 2 -21 0 -30z m-763 -55 c15 3 18 -1 12 -20 -3 -13 -6 -41
-6 -62 l0 -39 -25 23 c-26 25 -31 58 -18 121 l7 34 6 -30 c4 -22 10 -29 24
-27z m813 -35 c-2 -16 -4 -5 -4 22 0 28 2 40 4 28 2 -13 2 -35 0 -50z m-701
-106 c-5 -38 -19 -85 -37 -122 l-30 -60 5 64 c6 69 42 181 59 181 6 0 7 -24 3
-63z m151 41 c-3 -8 -6 -5 -6 6 -1 11 2 17 5 13 3 -3 4 -12 1 -19z m-50 -45
c-3 -10 -5 -4 -5 12 0 17 2 24 5 18 2 -7 2 -21 0 -30z m440 15 c-3 -8 -6 -5
-6 6 -1 11 2 17 5 13 3 -3 4 -12 1 -19z m-1777 -114 c0 -53 -22 -124 -33 -107
-13 20 -19 123 -12 180 l8 58 18 -40 c10 -22 19 -63 19 -91z m1086 12 c6 -37
-3 -79 -16 -71 -12 7 -19 56 -13 87 7 35 20 27 29 -16z m84 -131 c-5 -6 -7
-15 -3 -18 3 -4 1 -7 -5 -7 -15 0 -23 16 -16 33 3 9 12 13 20 10 10 -4 11 -9
4 -18z m-35 -75 c3 -5 1 -10 -4 -10 -6 0 -11 5 -11 10 0 6 2 10 4 10 3 0 8 -4
11 -10z m-1071 -66 c1 -6 10 -24 20 -39 17 -26 18 -46 13 -254 -4 -140 -11
-251 -20 -291 -8 -36 -15 -94 -15 -130 -1 -81 -19 -301 -26 -307 -3 -3 -10 15
-16 38 -6 24 -20 73 -30 109 -10 36 -23 121 -30 190 -6 69 -15 148 -20 175 -5
28 -16 129 -25 225 -9 96 -21 183 -26 192 -7 14 -6 18 6 18 9 0 15 9 15 22 l0
21 23 -21 c32 -30 40 -28 33 12 -4 18 -2 44 3 57 8 23 9 23 24 -13 19 -45 37
-49 37 -9 0 16 3 37 7 47 5 15 8 14 16 -7 5 -13 10 -29 11 -35z m1323 -201
c-3 -10 -5 -4 -5 12 0 17 2 24 5 18 2 -7 2 -21 0 -30z m-500 -65 c-3 -7 -5 -2
-5 12 0 14 2 19 5 13 2 -7 2 -19 0 -25z m-17 -98 l-11 -25 6 25 c2 14 5 34 6
45 2 19 2 19 6 0 2 -12 -1 -32 -7 -45z m167 -77 c-3 -10 -5 -2 -5 17 0 19 2
27 5 18 2 -10 2 -26 0 -35z"/>
<path d="M7610 9296 c0 -2 7 -7 16 -10 8 -3 12 -2 9 4 -6 10 -25 14 -25 6z"/>
</g>
</svg>
